<svg width="40" height="43" viewBox="0 0 40 43" fill="none" xmlns="http://www.w3.org/2000/svg">
<path d="M8.95357 42.8748H0.660714V14.25H8.95357V42.8748ZM4.80268 10.3453C2.15089 10.3453 0 7.99105 0 5.14866C1.89803e-08 3.78336 0.505995 2.47398 1.40667 1.50857C2.30735 0.543157 3.52893 0.000793457 4.80268 0.000793457C6.07643 0.000793457 7.29801 0.543157 8.19868 1.50857C9.09936 2.47398 9.60536 3.78336 9.60536 5.14866C9.60536 7.99105 7.45357 10.3453 4.80268 10.3453ZM39.9911 42.8748H31.7161V28.9405C31.7161 25.6196 31.6536 21.3608 27.4045 21.3608C23.0929 21.3608 22.4321 24.9688 22.4321 28.7012V42.8748H14.1482V14.25H22.1018V18.1547H22.2179C23.325 15.9057 26.0295 13.5323 30.0643 13.5323C38.4571 13.5323 40 19.4563 40 27.1508V42.8748H39.9911Z" fill="black"/>
</svg>
