<svg width="40" height="40" viewBox="0 0 40 40" fill="none" xmlns="http://www.w3.org/2000/svg">
<path d="M40 16.4034C36.068 16.4116 32.2325 15.3387 29.0352 13.3362V27.3022C29.0341 29.8889 28.1305 32.4136 26.4452 34.5388C24.76 36.664 22.3733 38.2884 19.6044 39.1947C16.8356 40.1011 13.8164 40.2462 10.9507 39.6106C8.08507 38.9751 5.50944 37.5893 3.56825 35.6384C1.62706 33.6875 0.412837 31.2645 0.0879471 28.6935C-0.236943 26.1225 0.342983 23.526 1.75018 21.2512C3.15738 18.9764 5.32477 17.1317 7.96255 15.9637C10.6003 14.7958 13.5828 14.3603 16.511 14.7154V21.7399C15.1711 21.3711 13.7321 21.3822 12.3998 21.7716C11.0675 22.161 9.90981 22.9089 9.09219 23.9083C8.27456 24.9077 7.83877 26.1076 7.84705 27.3367C7.85532 28.5658 8.30724 29.7611 9.13826 30.752C9.96928 31.743 11.1369 32.4788 12.4744 32.8545C13.8119 33.2301 15.2509 33.2264 16.5858 32.8438C17.9207 32.4613 19.0834 31.7194 19.9077 30.7242C20.732 29.729 21.1758 28.5313 21.1758 27.3022V0H29.0352C29.0298 0.580725 29.0854 1.16066 29.2013 1.73247C29.4744 3.00895 30.0423 4.22326 30.8702 5.30113C31.698 6.37901 32.7685 7.29778 34.0161 8.00124C35.7911 9.02814 37.8721 9.57547 40 9.57508V16.4034Z" fill="black"/>
</svg>
