<svg width="40" height="40" viewBox="0 0 40 40" fill="none" xmlns="http://www.w3.org/2000/svg">
<path d="M39.1642 6.25865C38.7041 3.7951 37.3487 1.8549 35.6277 1.19646C32.5084 0 20 0 20 0C20 0 7.49171 0 4.37226 1.19646C2.65129 1.855 1.29587 3.7951 0.835839 6.25865C0 10.724 0 20.0404 0 20.0404C0 20.0404 0 29.3569 0.835839 33.8222C1.29587 36.2857 2.65129 38.1451 4.37226 38.8035C7.49171 40 20 40 20 40C20 40 32.5083 40 35.6277 38.8035C37.3487 38.1451 38.7041 36.2857 39.1642 33.8222C40 29.3569 40 20.0404 40 20.0404C40 20.0404 40 10.724 39.1642 6.25865ZM15.9091 28.4991V11.5818L26.3636 20.0406L15.9091 28.4991Z" fill="black"/>
</svg>
