<svg width="63" height="70" viewBox="0 0 63 70" fill="none" xmlns="http://www.w3.org/2000/svg">
<path d="M0.744659 13.0966C0.744659 5.86355 8.20209 0 17.4014 0H45.9821C55.1813 0 62.6388 5.86355 62.6388 13.0966C62.6388 17.6766 59.6487 21.7077 55.1196 24.0484C59.6487 26.3893 62.6388 30.4202 62.6388 35.0003C62.6388 42.2334 55.1813 48.097 45.9821 48.097H45.6204C41.3078 48.097 37.3779 46.8083 34.4198 44.6939V56.7611C34.4198 64.0906 26.7674 70 17.4911 70C8.31482 70 0.744659 64.1543 0.744659 56.9033C0.744659 52.3235 3.73448 48.2928 8.2632 45.9519C3.73448 43.611 0.744659 39.5801 0.744659 35.0003C0.744659 30.4202 3.73474 26.3893 8.26377 24.0484C3.73474 21.7077 0.744659 17.6766 0.744659 13.0966ZM28.9637 26.1935H17.4014C11.2154 26.1935 6.20071 30.1365 6.20071 35.0003C6.20071 39.8453 11.1767 43.7765 17.3297 43.8069C17.3536 43.8067 17.3774 43.8067 17.4014 43.8067H28.9637V26.1935ZM34.4198 35.0003C34.4198 39.864 39.4344 43.807 45.6204 43.807H45.9821C52.1681 43.807 57.1827 39.864 57.1827 35.0003C57.1827 30.1365 52.1681 26.1935 45.9821 26.1935H45.6204C39.4344 26.1935 34.4198 30.1365 34.4198 35.0003ZM17.4014 48.097C17.3774 48.097 17.3536 48.0968 17.3297 48.0968C11.1767 48.1271 6.20071 52.0583 6.20071 56.9033C6.20071 61.7493 11.2824 65.71 17.4911 65.71C23.7999 65.71 28.9637 61.6856 28.9637 56.7611V48.097H17.4014ZM17.4014 4.28993C11.2154 4.28993 6.20071 8.23283 6.20071 13.0966C6.20071 17.9605 11.2154 21.9033 17.4014 21.9033H28.9637V4.28993H17.4014ZM34.4198 21.9033H45.9821C52.1681 21.9033 57.1827 17.9605 57.1827 13.0966C57.1827 8.23283 52.1681 4.28993 45.9821 4.28993H34.4198V21.9033Z" fill="black"/>
</svg>
