<svg width="73" height="70" viewBox="0 0 73 70" fill="none" xmlns="http://www.w3.org/2000/svg">
<path d="M71.3259 31.8828L39.8068 1.31981C38.9342 0.47471 37.7513 0 36.5179 0C35.2844 0 34.1015 0.47471 33.2289 1.31981L26.6753 7.66836L34.9794 15.7185C39.341 14.2903 43.4704 18.3389 41.9731 22.5436L49.9774 30.3031C55.4946 28.4593 59.8385 35.1469 55.6945 39.1611C51.4248 43.3002 44.3779 38.7126 46.6683 33.3266L39.1975 26.0937V45.1331C43.2754 47.0925 42.7854 51.6722 40.661 53.727C39.6231 54.7325 38.2158 55.2974 36.7483 55.2974C35.2809 55.2974 33.8736 54.7325 32.8356 53.727C30.0037 50.9769 31.0514 46.3971 34.6489 44.9768V25.7577C31.2964 24.428 30.6839 20.9545 31.6445 18.7264L23.4581 10.7809L1.84033 31.7406C0.968169 32.5863 0.47821 33.7332 0.47821 34.929C0.47821 36.1248 0.968169 37.2717 1.84033 38.1173L33.3692 68.6803C34.2414 69.5253 35.4241 70 36.6573 70C37.8904 70 39.0731 69.5253 39.9454 68.6803L71.3259 38.2595C72.1981 37.4138 72.688 36.267 72.688 35.0712C72.688 33.8753 72.1981 32.7285 71.3259 31.8828Z" fill="black"/>
</svg>
