<svg width="72" height="70" viewBox="0 0 72 70" fill="none" xmlns="http://www.w3.org/2000/svg">
<path d="M63.6458 0H7.72002C3.5097 0 0.0937805 3.35938 0.0937805 7.5V62.5C0.0937805 66.6406 3.5097 70 7.72002 70H63.6458C67.8561 70 71.2721 66.6406 71.2721 62.5V7.5C71.2721 3.35938 67.8561 0 63.6458 0ZM38.8287 54.5938C38.8287 61.4062 34.7614 64.5156 28.8352 64.5156C23.4809 64.5156 20.3828 61.7969 18.794 58.5L24.2436 55.2656C25.2922 57.0938 26.2454 58.6406 28.5492 58.6406C30.7418 58.6406 32.1399 57.7969 32.1399 54.5V32.1406H38.8287V54.5938ZM54.6532 64.5156C48.441 64.5156 44.4213 61.6094 42.4671 57.7969L47.9167 54.7031C49.3466 57 51.2214 58.7031 54.5102 58.7031C57.2747 58.7031 59.0542 57.3438 59.0542 55.4531C59.0542 53.2031 57.2429 52.4062 54.1766 51.0781L52.5083 50.375C47.6784 48.3594 44.4849 45.8125 44.4849 40.4531C44.4849 35.5156 48.3139 31.7656 54.2719 31.7656C58.5299 31.7656 61.5804 33.2188 63.7729 37.0312L58.5617 40.3125C57.4177 38.2969 56.1784 37.5 54.256 37.5C52.3018 37.5 51.0625 38.7188 51.0625 40.3125C51.0625 42.2812 52.3018 43.0781 55.1775 44.3125L56.8457 45.0156C62.5337 47.4062 65.7271 49.8594 65.7271 55.3594C65.7271 61.2656 60.9925 64.5156 54.6532 64.5156Z" fill="black"/>
</svg>
