<svg width="73" height="70" viewBox="0 0 73 70" fill="none" xmlns="http://www.w3.org/2000/svg">
<path d="M54.3795 65.6293C54.1109 65.7671 54.1335 65.8109 54.3908 65.684C54.4742 65.6512 54.5442 65.6052 54.6051 65.5505C54.6051 65.5046 54.6051 65.5046 54.3795 65.6293ZM54.921 65.3449C54.7924 65.4477 54.7924 65.4477 54.9458 65.3799C55.0271 65.334 55.0993 65.2902 55.0993 65.2771C55.0993 65.218 55.0632 65.2311 54.921 65.3449ZM55.273 65.1393C55.1444 65.2421 55.1444 65.2421 55.2979 65.1743C55.3813 65.1283 55.4513 65.0802 55.4513 65.0693C55.4513 65.0146 55.4152 65.0255 55.273 65.1393ZM55.6296 64.9358C55.5009 65.0386 55.5009 65.0386 55.6499 64.9686C55.7334 64.9249 55.8033 64.879 55.8033 64.8658C55.8033 64.8111 55.7672 64.8221 55.6296 64.9358ZM56.1102 64.6274C55.8642 64.7871 55.7785 64.8899 56.0041 64.7761C56.1553 64.6864 56.4126 64.4896 56.3674 64.4896C56.2704 64.5246 56.1892 64.5836 56.1079 64.6274H56.1102ZM34.5314 0.0160785C34.3667 0.0270162 33.8725 0.0707671 33.4393 0.105768C23.1768 1.00704 13.5754 6.36214 7.48967 14.6114C4.12525 19.133 1.94097 24.3853 1.11735 29.9001C0.826265 31.8252 0.790161 32.3939 0.790161 35.0037C0.790161 37.6112 0.826265 38.1712 1.11735 40.0963C3.08275 53.2456 12.7315 64.2839 25.8101 68.3746C28.1636 69.1031 30.6299 69.6062 33.4393 69.9147C34.5314 70.0284 39.2542 70.0284 40.3464 69.9147C45.2023 69.3897 49.3024 68.2281 53.3595 66.2221C53.9823 65.9158 54.0997 65.8349 54.0162 65.7671C52.0305 63.2274 50.0809 60.6854 48.129 58.1216L42.3592 50.568L35.1316 40.1881C32.7217 36.7143 30.3028 33.2493 27.8454 29.8104C27.8206 29.8104 27.789 34.424 27.7755 40.0503C27.7507 49.9052 27.7507 50.3055 27.622 50.533C27.4934 50.8065 27.2813 51.034 26.9993 51.1609C26.7759 51.2637 26.575 51.2856 25.5077 51.2856H24.287L23.9688 51.0931C23.7702 50.9684 23.6055 50.7955 23.4994 50.5921L23.346 50.2837L23.3573 36.5656L23.3821 22.8475L23.6055 22.574C23.7477 22.4056 23.9237 22.2678 24.1222 22.165C24.4178 22.0271 24.5352 22.0053 25.7559 22.0053C27.1888 22.0053 27.4257 22.06 27.8026 22.4603C30.727 26.6866 33.6424 30.9239 36.5103 35.1743C41.2016 42.0694 47.6055 51.4781 50.7533 56.0938L56.478 64.4918L56.7601 64.3102C59.5107 62.5317 62.0132 60.4142 64.1726 57.9991C68.7217 52.9503 71.6732 46.7398 72.6728 40.1116C72.9639 38.1865 73 37.6156 73 35.008C73 32.3983 72.9639 31.8405 72.6728 29.9154C70.7074 16.7661 61.0587 5.72776 47.9801 1.63486C45.534 0.884534 43.0181 0.372648 40.4705 0.110143C39.7868 0.042329 35.1204 -0.0386101 34.5337 0.0204536L34.5314 0.0160785ZM49.3046 21.1849C49.6454 21.3424 49.9026 21.64 50.0199 21.9812C50.0809 22.165 50.0921 25.9691 50.0809 34.5377L50.056 46.8405L47.8244 43.5154L45.5792 40.1881V31.2564C45.5792 25.466 45.604 22.2197 45.6356 22.06C45.7416 21.6946 45.9989 21.3884 46.3419 21.1959C46.6217 21.0581 46.73 21.0471 47.8469 21.0471C48.8917 21.0471 49.07 21.0581 49.3046 21.1849Z" fill="black"/>
</svg>
