<svg width="83" height="60" viewBox="0 0 83 60" fill="none" xmlns="http://www.w3.org/2000/svg">
<path d="M41.1051 60C40.8343 60 40.5635 59.9082 40.3185 59.7551L37.8427 58.0101C37.4688 57.7652 37.6493 57.6734 37.7783 57.6275C38.2682 57.4285 38.3714 57.3826 38.9001 57.0152C38.9517 56.9846 39.029 56.9999 39.0806 57.0305L40.989 58.3775C41.0535 58.4234 41.1566 58.4234 41.2211 58.3775L48.6742 53.2651C48.7387 53.2191 48.7903 53.1273 48.7903 53.0201V42.8106C48.7903 42.7034 48.7516 42.6116 48.6742 42.5657L41.2211 37.4686C41.1566 37.4226 41.0664 37.4226 40.989 37.4686L33.5359 42.5657C33.4586 42.6116 33.4199 42.7188 33.4199 42.8106V53.0201C33.4199 53.112 33.4715 53.2038 33.5359 53.2498L35.5733 54.6427C36.6822 55.3008 37.3656 54.5202 37.3656 53.7549V43.6678C37.3656 43.53 37.4559 43.4076 37.5848 43.4076H38.5261C38.6422 43.4076 38.7453 43.5147 38.7453 43.6678V53.7549C38.7453 55.5151 37.9459 56.5101 36.5404 56.5101C36.1148 56.5101 35.7667 56.5101 34.8254 55.959L32.8654 54.6274C32.3883 54.2906 32.0788 53.6783 32.0788 53.0201V42.8106C32.0788 42.1524 32.3754 41.5248 32.8654 41.2034L40.3185 36.091C40.7956 35.7695 41.4145 35.7695 41.8787 36.091L49.3318 41.2034C49.8089 41.5401 50.1184 42.1524 50.1184 42.8106V53.0201C50.1184 53.6783 49.8218 54.3059 49.3318 54.6274L41.8787 59.7398C41.6595 59.9082 41.3887 60 41.1051 60ZM47.1269 49.9282C47.1269 48.0149 46.0437 47.5097 43.7485 47.1424C41.4274 46.775 41.1953 46.5913 41.1953 45.9485C41.1953 45.4127 41.3887 44.7086 43.1037 44.7086C44.6382 44.7086 45.2056 45.1066 45.4377 46.3311C45.4634 46.4536 45.5408 46.5301 45.644 46.5301H46.6111C46.6755 46.5301 46.7271 46.4995 46.7658 46.4536C46.8045 46.3924 46.8303 46.3311 46.8174 46.2546C46.6626 44.1423 45.4892 43.1626 43.1037 43.1626C40.9761 43.1626 39.7124 44.2341 39.7124 46.0097C39.7124 47.9536 40.9761 48.4741 43.0135 48.719C45.4506 49.0098 45.644 49.4231 45.644 49.9894C45.644 50.9844 44.9734 51.3976 43.4003 51.3976C41.4274 51.3976 40.989 50.816 40.8472 49.6527C40.8343 49.5302 40.744 49.4384 40.628 49.4384H39.6609C39.5448 49.4384 39.4417 49.5455 39.4417 49.6986C39.4417 51.1833 40.1251 52.9589 43.3874 52.9589C45.7729 52.9589 47.1269 51.8568 47.1269 49.9282ZM54.1544 42.2595C54.1544 43.1933 53.5097 43.9586 52.7231 43.9586C51.9365 43.9586 51.2918 43.1933 51.2918 42.2595C51.2918 41.2952 51.9623 40.5605 52.7231 40.5605C53.4968 40.5452 54.1544 41.2952 54.1544 42.2595ZM53.9223 42.2595C53.9223 41.4636 53.3807 40.836 52.7102 40.836C52.0526 40.836 51.511 41.4636 51.511 42.2595C51.511 43.0555 52.0526 43.6984 52.7102 43.6984C53.3807 43.6831 53.9223 43.0402 53.9223 42.2595ZM53.3421 43.2086H53.0068C52.9939 43.1167 52.9423 42.6269 52.9423 42.6116C52.9165 42.5045 52.8907 42.4432 52.7747 42.4432H52.491V43.2086H52.1815V41.2952H52.736C52.9294 41.2952 53.3034 41.2952 53.3034 41.8004C53.3034 42.1524 53.11 42.2289 52.9939 42.2749C53.2131 42.2902 53.226 42.4585 53.2647 42.7034C53.2776 42.8565 53.3034 43.1167 53.3421 43.2086ZM52.981 41.8616C52.981 41.6014 52.8263 41.6014 52.7489 41.6014H52.491V42.1371H52.736C52.9423 42.1371 52.981 41.9687 52.981 41.8616ZM18.0237 20.0495C18.0237 19.6363 17.8432 19.2689 17.5466 19.0699L9.6422 13.6667C9.51326 13.5748 9.35852 13.5289 9.20379 13.5136H9.12642C8.97168 13.5136 8.82984 13.5748 8.688 13.6667L0.796498 19.0699C0.499922 19.2689 0.319397 19.6516 0.319397 20.0495L0.332292 34.5909C0.332292 34.7899 0.422554 34.9736 0.564395 35.0807C0.706235 35.1879 0.88676 35.1879 1.0415 35.0807L5.73514 31.8816C6.03171 31.6673 6.21224 31.3 6.21224 30.902V24.1058C6.21224 23.7078 6.39276 23.3252 6.68934 23.1262L8.688 21.7639C8.84274 21.6567 8.99747 21.6108 9.1651 21.6108C9.33273 21.6108 9.50036 21.6567 9.6422 21.7639L11.6409 23.1262C11.9374 23.3252 12.118 23.7078 12.118 24.1058V30.902C12.118 31.3 12.2985 31.6826 12.5951 31.8816L17.2887 35.0807C17.4306 35.1879 17.624 35.1879 17.7658 35.0807C17.9077 34.9889 17.9979 34.7899 17.9979 34.5909L18.0237 20.0495ZM61.2465 4.1765V31.1775C61.2465 31.5755 61.0659 31.9581 60.7694 32.1571L52.865 37.5757C52.5684 37.7747 52.2073 37.7747 51.9108 37.5757L44.0064 32.1571C43.7098 31.9581 43.5293 31.5755 43.5293 31.1775V20.3404C43.5293 19.9424 43.7098 19.5597 44.0064 19.3607L51.9108 13.9422C52.2073 13.7432 52.5684 13.7432 52.865 13.9422L54.8378 15.2892C55.057 15.4422 55.3407 15.2432 55.3407 14.9524V0.564125C55.3407 0.135537 55.7276 -0.139983 56.0499 0.0743104L60.7565 3.19688C61.053 3.38056 61.2465 3.76322 61.2465 4.1765ZM55.3149 23.9068C55.3149 23.7997 55.2634 23.7078 55.1989 23.6619L52.491 21.7945C52.4136 21.7486 52.3234 21.7486 52.246 21.7945L49.5381 23.6619C49.4608 23.7078 49.4221 23.7997 49.4221 23.9068V27.6264C49.4221 27.7335 49.4737 27.8253 49.5381 27.8713L52.246 29.7234C52.3234 29.7693 52.4136 29.7693 52.4781 29.7234L55.186 27.8713C55.2634 27.8253 55.302 27.7335 55.302 27.6264V23.9068H55.3149ZM82.3678 23.7997C82.6644 23.6007 82.8449 23.218 82.8449 22.8201V20.2026C82.8449 19.8046 82.6644 19.422 82.3678 19.223L74.515 13.8044C74.2184 13.6054 73.8574 13.6054 73.5608 13.8044L65.6564 19.223C65.3598 19.422 65.1793 19.8046 65.1793 20.2026V31.0397C65.1793 31.453 65.3598 31.8204 65.6564 32.0194L73.5092 37.3308C73.7929 37.5298 74.154 37.5298 74.4505 37.3308L79.1958 34.1929C79.5181 33.9786 79.5181 33.4276 79.1958 33.2133L71.2398 27.7947C71.085 27.6876 70.9948 27.5039 70.9948 27.3049V23.9068C70.9948 23.7078 71.085 23.5242 71.2398 23.417L73.7156 21.718C73.8574 21.6108 74.0508 21.6108 74.1926 21.718L76.6684 23.417C76.8103 23.5242 76.9134 23.7078 76.9134 23.9068V26.5702C76.9134 26.9988 77.3131 27.2743 77.6355 27.06L82.3678 23.7997ZM72.4003 24.3354C72.3487 24.3813 72.31 24.4426 72.31 24.5191V26.6008C72.31 26.6773 72.3487 26.7539 72.4003 26.7845L73.9219 27.8253C73.9734 27.8713 74.0508 27.8713 74.1024 27.8253L75.624 26.7845C75.6755 26.7386 75.7142 26.6773 75.7142 26.6008V24.5191C75.7142 24.4426 75.6755 24.366 75.624 24.3354L74.1024 23.2946C74.0508 23.2486 73.9734 23.2486 73.9219 23.2946L72.4003 24.3354ZM39.6222 30.9938V20.2179C39.6222 19.8199 39.4159 19.4373 39.1193 19.2383L31.2407 13.8503C30.9699 13.6667 30.596 13.636 30.2865 13.8503L22.4079 19.2383C22.1113 19.4373 21.905 19.8046 21.905 20.2179V30.9938C21.905 31.4224 22.15 31.7898 22.4208 31.9735L30.3123 37.3614C30.6217 37.5757 30.9828 37.5604 31.2665 37.3614L39.1322 31.9735C39.3643 31.8204 39.5319 31.5602 39.5964 31.254C39.6093 31.1775 39.6222 31.0857 39.6222 30.9938ZM30.0415 11.8758L29.9383 11.9523H30.0802L30.0415 11.8758ZM39.8672 31.8051L39.8156 31.6979V31.8357L39.8672 31.8051Z" fill="black"/>
</svg>
