<svg width="62" height="66" viewBox="0 0 62 66" fill="none" xmlns="http://www.w3.org/2000/svg">
<path d="M45.3093 0.799988C42.3645 0.799988 39.8146 1.57108 38.0488 2.33124C36.3169 1.76796 33.4454 0.805456 29.9985 1.49999C27.9902 1.83905 26.1455 2.64296 24.4531 3.87343C21.6662 2.57186 18.7552 1.77343 15.7033 1.64218C13.8247 1.49999 6.1693 2.34218 3.42194 6.2578C2.41213 7.79999 1.40232 9.7578 0.967933 12.1367C0.533546 14.2367 0.533546 16.6211 1.25564 21.5211C1.69003 24.8789 2.2711 27.1211 3.56862 31.7367C3.71529 32.1578 4.43739 34.4 6.60369 40.5633C7.03243 41.6789 7.90121 43.7789 9.63311 45.7367C10.7896 47.1367 11.9461 47.9789 13.3903 47.9789C15.2689 47.9789 16.5664 46.7211 17.7229 45.3211C17.8075 45.2281 17.8978 45.1242 17.9824 45.0312C17.8752 45.1953 17.7793 45.3758 17.7229 45.6C17.4352 47 19.1671 48.1211 20.6113 48.6789C21.7678 49.2367 23.0653 49.3789 24.0751 49.3789C25.3726 49.3789 26.3881 49.1 26.9635 48.9633C27.4599 48.7992 28.5318 48.3508 29.677 47.6125C29.7278 51.189 29.7616 55.4109 29.8519 56.3789C30.2863 60.0211 31.2961 62.5367 33.1747 63.9367C34.6188 65.0578 37.2195 65.2 37.3662 65.2C39.9613 65.2 44.0061 63.5211 45.738 60.8633C46.6068 59.6 46.8945 58.4789 47.1822 56.9367C47.4699 56.1 47.7577 51.2 47.9043 50.2211C48.1018 48.6734 48.2541 47.1476 48.4064 45.6656C49.3598 45.9062 50.5332 46.1633 51.8082 46.1633C54.1155 46.1633 57.1506 44.6211 57.726 44.3367C58.8825 43.5 61.1898 41.5422 60.18 39.8633C59.6046 38.8789 58.7358 38.8789 56.5695 39.1633C56.5695 39.1633 53.1057 39.5789 52.8123 39.4367C52.6036 39.3601 52.2821 39.1633 51.921 38.9062C52.6713 37.7797 53.337 36.6641 54.1155 35.6633C55.8474 32.4422 56.8629 29.9211 57.585 27.9633C58.8825 24.4633 59.6046 21.6578 60.0333 19.7C61.0488 15.5 61.3365 13.5422 60.7554 11.3C59.6046 7.37889 55.413 4.02108 53.6811 3.04218C52.5246 2.47889 49.6419 0.799988 45.3093 0.799988ZM45.3093 3.59999C48.9198 3.59999 51.3738 4.99999 52.6713 5.5578C54.2622 6.39999 57.8727 9.19999 58.1604 11.8578C58.3071 13.4 58.4481 14.9422 57.4383 19C56.8629 20.9578 56.2818 23.4789 54.9786 26.9789C54.2565 28.9367 53.3934 31.3211 51.6615 34.2633C51.6164 34.3344 51.5656 34.4109 51.5205 34.4875C51.6897 33.8969 51.8082 33.4211 51.8082 33.4211C52.0959 32.0211 52.0959 30.9 51.9492 29.2211C51.8025 28.3789 51.6615 26.2789 51.6615 25.4367C51.6615 25.0211 52.0902 20.6789 52.2369 19.1367C52.3836 16.6211 50.7927 13.5367 50.364 12.9789C48.1977 9.7578 47.0412 7.94218 44.7282 6.12108C44.1528 5.6453 43.1656 4.85233 41.8229 4.05389C42.8835 3.80233 44.0569 3.59999 45.3093 3.59999ZM32.5485 4.17421C34.4327 4.21796 36.0292 4.72108 37.2195 5.14218C40.2546 6.12108 42.1275 7.6578 42.9963 8.3578C44.8749 9.89999 45.8847 11.4422 48.051 14.6633C48.209 14.9695 48.6208 15.6203 48.948 16.5281C45.9919 16.2656 44.0287 17.2719 42.8496 18.3C41.1177 19.7 41.2588 21.8 41.4054 23.3367C41.4054 24.4578 41.6988 25.8633 43.8651 30.6211C44.7282 32.7211 45.5914 34.9578 46.4601 36.5C46.9114 37.3695 47.4643 38.168 48.0567 38.8789C47.7125 39.0484 47.3628 39.2672 47.0356 39.5789C46.1724 40.5578 46.0257 41.5422 45.738 43.3633C45.4503 44.7633 45.1626 47.7 45.0159 50.0789C45.0159 51.0578 44.5872 55.8211 44.4405 56.5211C44.0061 57.9211 43.8595 58.6211 43.284 59.4633C42.2742 61 39.0981 62.2633 37.2195 62.1211C36.6441 62.1211 35.7753 62.1211 35.0532 61.5633C33.4624 60.4422 32.8869 57.9211 32.7403 55.9633C32.5936 54.5633 32.7403 44.4789 32.4526 42.2367C32.3059 41.6789 32.1648 40.2789 31.0084 39.3C30.5232 38.9062 29.519 38.7039 28.5713 38.5672C28.5826 38.0969 28.6108 37.6265 28.701 37.2C28.8421 36.3578 29.1298 35.9367 29.4231 35.2367C29.5642 34.8211 29.8519 34.2633 30.1452 33.5633C31.4427 29.6422 31.1494 24.4578 30.4273 21.2367C30.2863 20.9578 29.7052 18.7211 27.6856 17.4633C25.5193 16.2 23.2063 16.9 21.9088 17.3211C21.3729 17.4633 20.8426 17.6875 20.3123 17.95C20.4025 17.3648 20.4815 16.7742 20.6113 16.2C21.1867 13.4 21.7678 11.0211 23.6463 8.64218C25.666 6.2578 27.9733 4.72108 30.574 4.29999C31.2622 4.19608 31.9223 4.1578 32.5485 4.17421ZM14.716 4.4203C15.0545 4.41483 15.3422 4.4203 15.5566 4.44218C17.8131 4.55702 19.9738 5.07108 22.1175 5.94608C21.8524 6.23046 21.5872 6.51483 21.3334 6.82108C18.8794 9.62108 18.2983 12.5578 17.7229 15.5C17.0008 19 16.8541 22.6367 17.4295 26.2789L17.1475 28.9367C17.0008 30.3367 16.7074 33 18.2983 35.8C18.8568 36.7297 19.4717 37.5172 20.1487 38.1898C18.6819 40.0711 17.1249 41.8484 15.5566 43.5C14.6878 44.4789 13.9657 45.1789 13.3903 45.1789C13.2436 45.1789 12.6682 44.9 11.7994 43.9211C10.2085 42.2422 9.63311 40.4211 9.3454 39.7211C7.61349 34.6789 6.60369 31.4578 6.45701 31.0367C5.30052 26.5578 4.7251 24.3211 4.14404 21.1C3.42194 16.6211 3.42194 14.3789 3.85633 12.5633C4.29071 10.6 5.01281 9.0578 5.73491 7.94218C7.50631 5.24608 12.3692 4.48046 14.716 4.4203ZM47.8536 19.175C48.3162 19.175 48.8182 19.2297 49.3485 19.3391C49.3316 20.6461 48.7731 24.7476 48.7731 25.3C48.7731 26.4211 49.0608 28.6578 49.0608 29.5C49.2075 31.0422 49.2075 31.8789 49.0608 33C49.0608 33 48.8464 34.0008 48.6264 34.7117C47.9551 33.2406 47.2104 31.4851 46.3135 29.5C44.1472 24.7422 44.0061 23.7633 44.0061 23.0633C44.0061 22.0789 44.0061 20.8211 44.8693 20.2633C45.6816 19.5633 46.6689 19.1859 47.8536 19.175ZM25.4347 19.5851C25.7224 19.618 25.9875 19.7 26.2414 19.8367C27.3979 20.4 27.6856 21.8 27.6856 21.8C28.4077 24.8789 28.6954 29.5 27.5389 32.5789C27.3979 33.1367 27.1102 33.5578 26.9635 33.9789C26.6758 34.6789 26.3881 35.3789 26.0947 36.6367C26.0214 37.1562 25.9875 37.6703 25.9706 38.1844C24.9721 37.982 24.03 37.6375 23.353 37.2C22.1965 36.6422 21.3334 35.6578 20.7579 34.5367C19.7425 32.4367 19.8892 30.4789 20.0358 29.3633L20.3179 26.1367C20.1148 24.5617 20.0189 22.9812 20.0415 21.4117C20.7072 20.8594 21.5759 20.2961 22.7776 19.9789C23.6463 19.7711 24.5941 19.4812 25.4347 19.5851ZM46.7309 20.5258C46.3529 20.5422 45.9524 20.6078 45.738 20.6789C45.1626 20.8211 45.0159 20.8211 44.8693 21.1C44.7282 21.3789 45.1626 21.8 45.3093 22.0789C45.4503 22.0789 45.8847 22.5 46.4601 22.3633C46.8945 22.2211 47.1822 21.9422 47.3289 21.8C47.4756 21.6578 48.051 20.9578 47.6166 20.6789C47.4699 20.5367 47.1089 20.5039 46.7309 20.5258ZM25.1075 21.543C24.9495 21.5539 24.7972 21.5922 24.6505 21.6633C24.5095 21.6633 24.2218 21.8 24.0751 22.0789C23.9284 22.3578 24.0751 22.6367 24.2218 22.7789C24.5095 23.2 24.9439 23.6211 25.666 23.6211C25.8126 23.6211 26.3881 23.6211 26.8168 23.2C26.8168 23.2 27.2568 22.7789 27.2568 22.3633C27.1102 22.0789 26.8224 21.9422 26.3881 21.8C26.0609 21.6961 25.5757 21.5101 25.1075 21.543ZM22.4504 39.8633C23.3361 40.3226 24.4023 40.6945 25.5701 40.9515C25.2598 41.5531 24.8141 42.0508 24.3684 42.3789C23.353 43.0789 22.0555 43.5 20.7579 43.7789C20.4646 43.7789 20.3236 43.9211 20.0358 43.9211C19.3363 44.1125 18.6593 44.3258 18.1968 44.7906C19.6127 43.2648 21.0344 41.5805 22.4504 39.8633ZM50.2963 40.9844C50.9281 41.4437 51.5487 41.7828 52.0902 41.9633C52.959 42.2422 53.6811 42.2422 56.2818 41.9633C55.8474 42.3789 54.5499 43.0789 52.6713 43.3633C51.4641 43.4781 49.9634 43.1992 48.7449 42.8601C48.8577 42.0672 48.9875 41.6133 49.2019 41.4C49.2808 41.3289 49.7604 41.1867 50.2963 40.9844ZM28.5487 41.4055C28.8477 41.4547 29.0846 41.493 29.1298 41.5367C29.4175 41.8211 29.5642 42.5211 29.5642 42.8C29.5811 43.0406 29.5924 43.6476 29.6036 44.0687C28.4133 45.4195 26.5009 46.1687 26.0947 46.3C25.5193 46.5789 23.7874 46.8578 22.0555 46.3C23.4997 45.8789 24.9439 45.4633 26.0947 44.6211C27.1045 43.9211 27.9733 42.8055 28.5487 41.4055Z" fill="black"/>
</svg>
