<svg width="84" height="70" viewBox="0 0 84 70" fill="none" xmlns="http://www.w3.org/2000/svg">
<path d="M67.8829 22.6843C67.0125 22.4031 66.1421 22.1375 65.2718 21.8875C65.4168 21.3094 65.5458 20.7313 65.6747 20.1532C67.6573 10.8412 66.3517 3.35724 61.9514 0.888624C57.7123 -1.47063 50.7976 0.982369 43.8022 6.8883C43.1091 7.4664 42.4322 8.07574 41.7874 8.68508C41.3522 8.27885 40.9009 7.87263 40.4496 7.48202C33.1158 1.16986 25.7659 -1.48625 21.3656 0.997993C17.1426 3.37287 15.8854 10.4194 17.6584 19.2314C17.8357 20.1063 18.0291 20.9657 18.2548 21.8406C17.2232 22.1219 16.2077 22.4343 15.2568 22.7625C6.64961 25.6529 0.476318 30.2152 0.476318 34.9337C0.476318 39.8084 7.05257 44.6988 15.9982 47.6674C16.7235 47.9017 17.4489 48.1361 18.1903 48.3392C17.9485 49.2767 17.739 50.1985 17.5456 51.1516C15.8531 59.823 17.1748 66.6976 21.3978 69.0569C25.7498 71.4942 33.0675 68.9944 40.1917 62.9478C40.7559 62.4635 41.32 61.9635 41.8842 61.4323C42.5934 62.1041 43.3348 62.7447 44.0762 63.3697C50.9749 69.1194 57.7929 71.4474 61.9998 69.0881C66.3517 66.6507 67.7701 59.2605 65.9326 50.261C65.7875 49.5735 65.6264 48.8704 65.4491 48.1517C65.9648 48.0111 66.4645 47.8549 66.9642 47.6986C76.2644 44.7144 83.0019 39.8865 83.0019 34.9337C83.0019 30.1996 76.6513 25.6061 67.8829 22.6843ZM46.0749 9.41942C52.0709 4.35719 57.6639 2.37292 60.2106 3.79472C62.9346 5.31026 63.9823 11.4349 62.2738 19.4814C62.1609 20.0126 62.0481 20.5282 61.903 21.0438C58.3248 20.2626 54.6982 19.7001 51.0554 19.3876C48.9601 16.4815 46.6713 13.7004 44.1891 11.0912C44.8177 10.5131 45.4302 9.96626 46.0749 9.41942ZM27.4261 43.0426C28.2481 44.4019 29.0862 45.7612 29.9727 47.0893C27.4583 46.8237 24.96 46.4331 22.4939 45.9175C23.2031 43.6676 24.0896 41.3396 25.1212 38.9647C25.8626 40.3396 26.6201 41.6989 27.4261 43.0426ZM22.5422 24.2467C24.8633 23.7468 27.3294 23.3405 29.8922 23.0281C29.0379 24.3249 28.1997 25.6529 27.4099 26.9966C26.6202 28.3247 25.8465 29.684 25.1212 31.0589C24.1057 28.7309 23.2514 26.4498 22.5422 24.2467ZM26.9586 35.0118C28.0224 32.8557 29.183 30.7464 30.4079 28.6684C31.6329 26.5904 32.9546 24.5749 34.3408 22.5906C36.7585 22.4187 39.2246 22.325 41.7391 22.325C44.2535 22.325 46.7357 22.4187 49.1374 22.5906C50.5074 24.5592 51.813 26.5748 53.0541 28.6371C54.2952 30.6995 55.4557 32.8088 56.5518 34.9493C55.4719 37.1054 54.3113 39.2303 53.0702 41.324C51.8452 43.402 50.5397 45.4175 49.1696 47.4174C46.768 47.5893 44.2697 47.6674 41.7391 47.6674C39.2085 47.6674 36.7585 47.5893 34.3892 47.4486C32.9869 45.4644 31.6652 43.4332 30.4241 41.3552C29.183 39.2772 28.0386 37.1679 26.9586 35.0118ZM56.0682 43.0114C56.8903 41.6364 57.6639 40.2459 58.4215 38.8397C59.4531 41.1052 60.3557 43.402 61.1455 45.7612C58.6471 46.3081 56.1166 46.7299 53.5699 47.0112C54.4403 45.6987 55.2623 44.355 56.0682 43.0114ZM58.3893 31.0589C57.6317 29.684 56.858 28.309 56.0521 26.9654C55.2623 25.6373 54.4403 24.3249 53.586 23.0281C56.1811 23.3405 58.6633 23.7624 60.9843 24.278C60.2429 26.5904 59.3725 28.8403 58.3893 31.0589ZM41.7713 13.4817C43.4637 15.2629 45.0594 17.1378 46.5423 19.0752C43.3509 18.9345 40.1434 18.9345 36.952 19.0752C38.5316 17.0596 40.1595 15.1847 41.7713 13.4817ZM23.0741 3.90409C25.782 2.37292 31.7941 4.5603 38.1286 9.99751C38.5316 10.3412 38.9345 10.7162 39.3536 11.0912C36.8553 13.7004 34.5503 16.4815 32.4388 19.3876C28.7961 19.7001 25.1856 20.247 21.6074 21.0125C21.3978 20.2157 21.2205 19.4033 21.0432 18.5908C19.5281 11.0287 20.5274 5.32589 23.0741 3.90409ZM19.1252 45.0894C18.4482 44.9019 17.7873 44.6988 17.1265 44.48C13.6933 43.4332 9.79268 41.7771 6.97198 39.6053C5.34404 38.5116 4.24799 36.8242 3.94175 34.9337C3.94175 32.0745 9.03512 28.4184 16.385 25.9342C17.3038 25.6217 18.2387 25.3404 19.1735 25.0748C20.2696 28.4653 21.5912 31.7932 23.1225 35.0118C21.5751 38.2773 20.2373 41.6521 19.1252 45.0894ZM37.9191 60.4011C35.2595 62.7603 32.181 64.6352 28.8284 65.9164C27.0392 66.7445 24.9761 66.8226 23.1386 66.1195C20.5758 64.6821 19.512 59.1668 20.9626 51.7453C21.1399 50.8703 21.3334 49.9954 21.559 49.136C25.1695 49.886 28.8122 50.4016 32.5033 50.6672C34.6309 53.5889 36.9681 56.3857 39.4664 59.0105C38.9506 59.4949 38.4348 59.9636 37.9191 60.4011ZM41.868 56.6044C40.224 54.8857 38.5799 52.9796 36.9842 50.9328C38.5316 50.9953 40.1273 51.0266 41.7391 51.0266C43.3993 51.0266 45.0272 50.9953 46.639 50.9172C45.1562 52.9015 43.5604 54.792 41.868 56.6044ZM62.9346 61.2916C62.7895 63.1978 61.8224 64.979 60.2751 66.182C57.7123 67.6194 52.2482 65.7445 46.3489 60.8385C45.6719 60.2761 44.995 59.6667 44.3019 59.0418C46.768 56.4013 49.0407 53.6046 51.1038 50.6672C54.7949 50.3704 58.4698 49.8235 62.0965 49.0267C62.2576 49.6673 62.4027 50.3079 62.5317 50.9328C63.3214 54.3076 63.4504 57.8231 62.9346 61.2916ZM65.8681 44.4957C65.4168 44.6363 64.9655 44.7769 64.4981 44.9019C63.3698 41.4958 61.9836 38.1679 60.3879 34.9337C61.9353 31.7464 63.2409 28.4653 64.3369 25.1061C65.175 25.3404 65.981 25.5904 66.7546 25.8404C74.2658 28.3403 79.5364 32.0588 79.5364 34.9024C79.5364 37.9648 73.9112 41.9177 65.8681 44.4957ZM41.7391 42.152C45.817 42.152 49.1213 38.9491 49.1213 34.9962C49.1213 31.0433 45.817 27.8403 41.7391 27.8403C37.6612 27.8403 34.3569 31.0433 34.3569 34.9962C34.3569 38.9491 37.6612 42.152 41.7391 42.152Z" fill="black"/>
</svg>
