<svg width="83" height="65" viewBox="0 0 83 65" fill="none" xmlns="http://www.w3.org/2000/svg">
<path d="M39.2424 49.1408C39.165 49.2871 39.2037 49.2221 39.2424 49.1408V49.1408ZM71.3671 37.3605C68.7736 37.3597 66.2147 37.9851 63.8881 39.1885C63.1274 37.5772 62.3408 36.169 62.2118 35.1128C62.0571 33.8806 61.8895 33.1494 62.07 31.6871C62.2505 30.2247 63.0629 28.153 63.05 28.004C63.0371 27.8551 62.8695 27.1103 61.206 27.0968C59.5426 27.0833 58.1113 27.4353 57.945 27.8957C57.6512 28.737 57.4226 29.6019 57.2615 30.4819C56.9649 32.0662 53.936 37.7261 52.221 40.678C51.6536 39.527 51.1765 38.5115 51.0733 37.6991C50.9186 36.4669 50.751 35.7357 50.9315 34.2733C51.112 32.8109 51.9244 30.7392 51.9115 30.5903C51.8986 30.4413 51.731 29.6966 50.0688 29.683C48.4067 29.6695 46.9741 30.0216 46.8065 30.4819C46.6388 30.9423 46.4583 32.0256 46.123 33.0682C45.7878 34.1108 41.753 43.535 40.6969 45.9859C40.1553 47.2316 39.6911 48.2336 39.3559 48.9106C39.3043 49.019 39.2656 49.0867 39.2398 49.1408C39.2785 49.0731 39.3043 49.0054 39.3043 49.0325C39.0206 49.6148 38.853 49.9397 38.853 49.9397V49.9533C38.6338 50.3866 38.3888 50.7792 38.2727 50.7792C38.1953 50.7792 38.0277 49.6418 38.3114 48.0847C38.9174 44.8079 40.3488 39.7166 40.3359 39.5406C40.323 39.4458 40.6067 38.5657 39.3945 38.0917C38.2211 37.6449 37.7956 38.3896 37.6924 38.3896C37.5893 38.3896 37.5119 38.6604 37.5119 38.6604C37.5119 38.6604 38.8143 32.9192 35.0116 32.9192C32.639 32.9192 29.3379 35.6544 27.7158 38.1324C26.6971 38.7146 24.4921 39.9739 22.171 41.3144C21.2813 41.8289 20.3657 42.357 19.5018 42.858C19.4373 42.7903 19.3857 42.7226 19.3213 42.6549C14.7062 37.4824 6.18537 33.8265 6.54642 26.8802C6.67537 24.3481 7.51353 17.6996 22.9318 9.62947C35.5687 3.02168 45.6717 4.83611 47.4112 8.8712C49.9128 14.6259 42.0096 25.3365 28.8866 26.8802C23.8847 27.4624 21.2555 25.4313 20.5978 24.673C19.9144 23.8741 19.8113 23.8335 19.5534 23.9825C19.1278 24.2262 19.3986 24.9303 19.5534 25.3501C19.9402 26.4198 21.5521 28.3155 24.2974 29.2633C26.7087 30.0893 32.5732 30.5496 39.664 27.6655C47.6304 24.4429 53.8315 15.4655 52.0134 7.95044C50.1617 0.313567 38.1025 -2.19144 26.6996 2.0603C19.9054 4.59238 12.558 8.57331 7.2724 13.7593C0.993936 19.9338 -0.0105658 25.3094 0.402067 27.5572C1.87078 35.5326 12.3387 40.7321 16.5283 44.5777C16.3219 44.6995 16.1285 44.8079 15.948 44.9162C13.8474 46.013 5.86687 50.4001 3.86947 55.031C1.61289 60.2847 4.24342 64.049 5.97003 64.5635C11.3587 66.1342 16.8764 63.3043 19.8409 58.6599C22.8054 54.0154 22.4457 47.9493 21.0788 45.187C21.0659 45.1464 21.0401 45.1193 21.0272 45.0787C21.5688 44.7402 22.1233 44.4016 22.6778 44.0631C23.7467 43.3996 24.7912 42.7903 25.7068 42.2622C25.191 43.7246 24.817 45.4849 24.6236 48.0305C24.3915 51.0094 25.5649 54.8685 27.0865 56.385C27.757 57.0485 28.5681 57.0621 29.071 57.0621C30.8505 57.0621 31.65 55.5184 32.5384 53.6769C33.6345 51.4292 34.6016 48.8159 34.6016 48.8159C34.6016 48.8159 33.3895 55.884 36.7034 55.884C37.9142 55.884 39.1263 54.2456 39.6692 53.4061V53.4197C39.6692 53.4197 39.695 53.3655 39.7595 53.2572C39.8884 53.0541 39.9529 52.9322 39.9529 52.9322V52.8916C40.4429 52.0114 41.5132 49.9939 43.1237 46.6629C45.2127 42.357 47.2101 36.9814 47.2101 36.9814C47.4031 38.1631 47.6701 39.3301 48.0095 40.4749C48.3706 41.7612 49.1314 43.1694 49.7374 44.537C49.2474 45.2412 48.9509 45.6474 48.9509 45.6474C48.9518 45.6578 48.9564 45.6674 48.9637 45.6745C48.5769 46.2161 48.1385 46.7983 47.6872 47.367C46.0379 49.4252 44.0766 51.7812 43.8187 52.4583C43.5093 53.2572 43.5866 53.853 44.1798 54.3133C44.6182 54.6654 45.3919 54.7195 46.203 54.6518C47.6859 54.5435 48.7304 54.1644 49.2332 53.9207C50.1604 53.5716 51.0366 53.0885 51.8367 52.4854C53.4486 51.2396 54.4286 49.4523 54.3383 47.0962C54.2867 45.7963 53.887 44.4964 53.397 43.2778C53.5388 43.0611 53.6936 42.8309 53.8354 42.6007C56.3873 38.6875 58.3602 34.3925 58.3602 34.3925C58.5532 35.5741 58.8202 36.7412 59.1596 37.8859C59.4691 38.9827 60.0739 40.1878 60.6284 41.3658C58.2312 43.4105 56.7483 45.7801 56.2325 47.3372C55.2783 50.2214 56.0262 51.5213 57.4317 51.8192C58.0636 51.9546 58.9662 51.6431 59.6367 51.3452C60.6326 50.9969 61.5715 50.49 62.4207 49.8422C64.0326 48.5965 65.5915 46.8498 65.4884 44.4802C65.4497 43.4105 65.166 42.3408 64.7921 41.3117C66.8166 40.418 69.4458 39.9305 72.7984 40.3368C79.9782 41.2169 81.3838 45.929 81.113 47.8924C80.8422 49.8558 79.3335 50.9526 78.8306 51.2775C78.3277 51.6025 78.173 51.7244 78.2117 51.9681C78.2761 52.3202 78.5082 52.3066 78.9338 52.2254C79.5269 52.1171 82.6977 50.6276 82.8396 46.9852C83.0459 42.3814 78.8306 37.3172 71.3633 37.3578L71.3671 37.3605ZM16.0254 56.9537C13.654 59.6754 10.3272 60.7045 8.89714 59.8379C7.36266 58.9009 7.96871 54.8956 10.8945 51.9952C12.674 50.2349 14.968 48.61 16.4896 47.608C16.8377 47.3914 17.3406 47.0664 17.9596 46.6737C18.0627 46.606 18.1143 46.579 18.1143 46.579C18.2304 46.4977 18.3593 46.43 18.4883 46.3488C19.5572 50.4651 18.5269 54.094 16.0254 56.951V56.9537ZM33.3508 44.5777C32.5255 46.7035 30.786 52.1198 29.7286 51.8354C28.826 51.5917 28.2715 47.4618 29.5481 43.3996C30.1928 41.355 31.5597 38.9177 32.3721 37.9699C33.6731 36.4398 35.1045 35.9523 35.4397 36.5617C35.891 37.3605 33.8666 43.2507 33.3508 44.5777ZM47.664 51.7542C47.3158 51.9437 46.9934 52.0656 46.8387 51.9708C46.7226 51.9031 46.9805 51.6458 46.9805 51.6458C46.9805 51.6458 48.7729 49.6283 49.4821 48.7075C49.8948 48.1659 50.3719 47.5295 50.8864 46.8254C50.8864 46.8931 50.8993 46.9608 50.8993 47.0421C50.8825 49.4658 48.6659 51.1042 47.6601 51.7542H47.664ZM58.6993 49.1138C58.4414 48.9242 58.4801 48.2878 59.344 46.3109C59.6793 45.539 60.4517 44.2392 61.794 42.9934C61.946 43.465 62.0286 43.9581 62.039 44.4558C62.0261 47.5024 59.9501 48.6398 58.7006 49.1138H58.6993Z" fill="black"/>
</svg>
