<svg width="73" height="47" viewBox="0 0 73 47" fill="none" xmlns="http://www.w3.org/2000/svg">
<path d="M70.3948 8.98625C68.9266 8.3825 67.2266 8.98042 66.5136 10.3629C65.8396 11.6696 64.94 12.4717 63.7636 12.8071C61.9222 13.3408 59.7228 12.6554 58.6938 12.0692C57.3369 11.2962 55.7633 10.1238 54.0995 8.88417C48.789 4.92333 42.1818 0 33.1015 0C25.8384 0 22.1075 3.61375 15.9306 9.60458C14.7541 10.745 14.7451 12.6 15.9215 13.7375C17.0649 14.8517 18.9002 14.8867 20.0796 13.825C20.1097 13.7987 20.1398 13.7696 20.1699 13.7433C21.8307 12.5008 32.2951 13.7083 36.8684 17.2317C43.6652 22.4671 48.5724 26.25 54.1627 26.25C62.1629 26.25 68.8423 21.1721 72.0346 12.6642C72.5792 11.2117 71.8601 9.59875 70.3948 8.98625ZM55.3511 29.4029C53.8829 28.7992 52.1829 29.3971 51.4698 30.7796C50.7959 32.0863 49.8963 32.8883 48.7198 33.2238C46.8785 33.7487 44.6791 33.0721 43.6501 32.4858C42.2932 31.7129 40.7196 30.5404 39.0558 29.3008C33.7453 25.34 27.1381 20.4167 18.0577 20.4167C10.7946 20.4167 7.06379 24.0304 0.88684 30.0213C-0.289579 31.1617 -0.298605 33.0167 0.877814 34.1542C2.02114 35.2683 3.85948 35.3063 5.03891 34.2417C5.06899 34.2154 5.09908 34.1862 5.12917 34.16C6.78699 32.9175 17.2574 34.125 21.8277 37.6483C28.6214 42.8838 33.5287 46.6667 39.1189 46.6667C47.1192 46.6667 53.7986 41.5888 56.9909 33.0808C57.5355 31.6283 56.8164 30.0154 55.3511 29.4029Z" fill="black"/>
</svg>
