<svg width="70" height="68" viewBox="0 0 70 68" fill="none" xmlns="http://www.w3.org/2000/svg">
<path d="M67.9062 0.399994H1.8858C0.973069 0.399994 0.235291 1.11679 0.235291 1.99999V66C0.235291 66.8832 0.973069 67.6 1.8858 67.6H67.9062C68.819 67.6 69.5567 66.8832 69.5567 66V1.99999C69.5567 1.11679 68.819 0.399994 67.9062 0.399994ZM41.4981 36.312H33.2455V61.2H26.6435V36.312H18.3909V30.8H41.4981V36.312ZM43.3483 59.7792V53.1264C43.3483 53.1264 47.0966 55.8656 51.5942 55.8656C56.0919 55.8656 55.9186 53.0144 55.9186 52.624C55.9186 48.4864 43.175 48.4864 43.175 39.32C43.175 26.8544 61.7432 31.7728 61.7432 31.7728L61.5122 37.6992C61.5122 37.6992 58.3976 35.6864 54.8804 35.6864C51.3632 35.6864 50.0939 37.3072 50.0939 39.04C50.0939 43.512 62.9531 43.0656 62.9531 52.0656C62.9547 65.928 43.3483 59.7792 43.3483 59.7792Z" fill="black"/>
</svg>
